<?xml version="1.0" encoding="utf-8"?>
<svg version="1.1" width="30" height="30" x="0" y="0" viewBox="0 0 469.333 469.333" style="" class="" xmlns="http://www.w3.org/2000/svg">
  <defs>
    <linearGradient gradientUnits="userSpaceOnUse" x1="234.667" y1="0" x2="234.667" y2="469.334" id="gradient-0" spreadMethod="pad">
      <stop offset="0" style="stop-color: #bada55"/>
      <stop offset="1" style="stop-color: #758d29"/>
    </linearGradient>
    <linearGradient gradientUnits="userSpaceOnUse" x1="234.667" y1="21.334" x2="234.667" y2="448" id="gradient-1" spreadMethod="pad">
      <stop offset="0" style="stop-color: #bada55"/>
      <stop offset="1" style="stop-color: #758d29"/>
    </linearGradient>
    <linearGradient gradientUnits="userSpaceOnUse" x1="149.333" y1="106.666" x2="149.333" y2="192" id="gradient-2" spreadMethod="pad">
      <stop offset="0" style="stop-color: #bada55"/>
      <stop offset="1" style="stop-color: #758d29"/>
    </linearGradient>
    <linearGradient gradientUnits="userSpaceOnUse" x1="149.333" y1="128" x2="149.333" y2="170.667" id="gradient-3" spreadMethod="pad">
      <stop offset="0" style="stop-color: #bada55"/>
      <stop offset="1" style="stop-color: #758d29"/>
    </linearGradient>
    <linearGradient gradientUnits="userSpaceOnUse" x1="320" y1="106.667" x2="320" y2="192.001" id="gradient-4" spreadMethod="pad">
      <stop offset="0" style="stop-color: #bada55"/>
      <stop offset="1" style="stop-color: #758d29"/>
    </linearGradient>
    <linearGradient gradientUnits="userSpaceOnUse" x1="320" y1="128" x2="320" y2="170.667" id="gradient-5" spreadMethod="pad">
      <stop offset="0" style="stop-color: #bada55"/>
      <stop offset="1" style="stop-color: #758d29"/>
    </linearGradient>
    <linearGradient gradientUnits="userSpaceOnUse" x1="234.667" y1="192" x2="234.667" y2="362.667" id="gradient-6" spreadMethod="pad">
      <stop offset="0" style="stop-color: #bada55"/>
      <stop offset="1" style="stop-color: #758d29"/>
    </linearGradient>
    <linearGradient gradientUnits="userSpaceOnUse" x1="234.666" y1="213.333" x2="234.666" y2="341.333" id="gradient-7" spreadMethod="pad">
      <stop offset="0" style="stop-color: #bada55"/>
      <stop offset="1" style="stop-color: #758d29"/>
    </linearGradient>
    <linearGradient gradientUnits="userSpaceOnUse" x1="278.59" y1="110.496" x2="278.59" y2="448" id="gradient-8" spreadMethod="pad">
      <stop offset="0" style="stop-color: #bada55"/>
      <stop offset="1" style="stop-color: #758d29"/>
    </linearGradient>
    <linearGradient gradientUnits="userSpaceOnUse" x1="234.667" y1="0" x2="234.667" y2="469.334" id="gradient-9" spreadMethod="pad">
      <stop offset="0" style="stop-color: #bada55"/>
      <stop offset="1" style="stop-color: #758d29"/>
    </linearGradient>
  </defs>
  <g>
    <path d="M426.667 0h-384C19.135 0 0 19.135 0 42.667v384c0 23.531 19.135 42.667 42.667 42.667h384c23.531 0 42.667-19.135 42.667-42.667v-384C469.333 19.135 450.198 0 426.667 0z" style="stroke: url('#gradient-0'); paint-order: fill; fill: rgb(104, 117, 219); fill-opacity: 0.33;" data-original="#303c42" class=""/>
    <path d="M448 426.667c0 11.76-9.573 21.333-21.333 21.333h-384c-11.76 0-21.333-9.573-21.333-21.333v-384c0-11.76 9.573-21.333 21.333-21.333h384c11.76 0 21.333 9.573 21.333 21.333v384z" style="stroke: url('#gradient-1'); paint-order: fill; fill: rgb(104, 117, 219); fill-opacity: 0.33;" data-original="#388e3c" class=""/>
    <path d="M192 181.333v-64a10.66 10.66 0 0 0-10.667-10.667h-64a10.66 10.66 0 0 0-10.667 10.667v64A10.66 10.66 0 0 0 117.333 192h64A10.66 10.66 0 0 0 192 181.333z" style="stroke: url('#gradient-2'); paint-order: fill; fill: rgb(104, 117, 219); fill-opacity: 0.33;" data-original="#303c42" class=""/>
    <path d="M128 128h42.667v42.667H128z" style="stroke: url('#gradient-3'); paint-order: fill; fill: rgb(104, 117, 219); fill-opacity: 0.33;" data-original="#546e7a"/>
    <path d="M352 106.667h-64a10.66 10.66 0 0 0-10.667 10.667v64A10.66 10.66 0 0 0 288 192.001h64a10.66 10.66 0 0 0 10.667-10.667v-64A10.66 10.66 0 0 0 352 106.667z" style="stroke: url('#gradient-4'); paint-order: fill; fill: rgb(104, 117, 219); fill-opacity: 0.33;" data-original="#303c42" class=""/>
    <path d="M298.667 128h42.667v42.667h-42.667z" style="stroke: url('#gradient-5'); paint-order: fill; fill: rgb(104, 117, 219); fill-opacity: 0.33;" data-original="#546e7a"/>
    <path d="M330.667 234.667h-53.333v-32A10.66 10.66 0 0 0 266.667 192h-64A10.66 10.66 0 0 0 192 202.667v32h-53.333A10.66 10.66 0 0 0 128 245.334V352a10.66 10.66 0 0 0 10.667 10.667h42.667A10.66 10.66 0 0 0 192.001 352v-32h85.333v32a10.66 10.66 0 0 0 10.667 10.667h42.667A10.66 10.66 0 0 0 341.335 352V245.333a10.663 10.663 0 0 0-10.668-10.666z" style="stroke: url('#gradient-6'); paint-order: fill; fill: rgb(104, 117, 219); fill-opacity: 0.33;" data-original="#303c42" class=""/>
    <path d="M320 341.333h-21.333v-32A10.66 10.66 0 0 0 288 298.666H181.333a10.66 10.66 0 0 0-10.667 10.667v32h-21.333V256h53.333a10.66 10.66 0 0 0 10.667-10.667v-32H256v32A10.66 10.66 0 0 0 266.667 256H320v85.333z" style="stroke: url('#gradient-7'); paint-order: fill; fill: rgb(104, 117, 219); fill-opacity: 0.33;" data-original="#546e7a"/>
    <path d="m109.18 187.98.014.014-.012-.017-.002.003zm204.345 46.687-38.837-38.837c1.586 1.862 2.646 4.197 2.646 6.837v32h36.191zm46.496-124.171c1.586 1.862 2.646 4.197 2.646 6.837v64A10.66 10.66 0 0 1 352 192h-64c-1.928 0-3.641-.65-5.201-1.543l44.21 44.21h3.658a10.66 10.66 0 0 1 10.667 10.667V352a10.66 10.66 0 0 1-10.667 10.667H288A10.66 10.66 0 0 1 277.333 352v-32H192v32a10.66 10.66 0 0 1-10.667 10.667h-42.667a10.634 10.634 0 0 1-7.544-3.122L219.579 448h207.087c11.76 0 21.333-9.573 21.333-21.333V198.475l-87.978-87.979zM192 234.667v-32A10.66 10.66 0 0 1 202.667 192h64c2.641 0 4.975 1.06 6.837 2.646l-84.15-84.15c1.586 1.862 2.646 4.197 2.646 6.837v64A10.66 10.66 0 0 1 181.333 192h-64c-2.564 0-4.823-1.022-6.661-2.527l45.194 45.194H192z" style="stroke: url('#gradient-8'); paint-order: fill; fill: rgb(104, 117, 219); fill-opacity: 0.33;"/>
    <path d="M426.667 0h-384C19.135 0 0 19.135 0 42.667v384c0 23.531 19.135 42.667 42.667 42.667h384c23.531 0 42.667-19.135 42.667-42.667v-384C469.333 19.135 450.198 0 426.667 0z" style="stroke: url('#gradient-9'); paint-order: fill; fill: rgb(104, 117, 219); fill-opacity: 0.33;"/>
  </g>
</svg>